<?xml version="1.0" encoding="utf-8"?>
<!-- Generator: Adobe Illustrator 16.0.0, SVG Export Plug-In . SVG Version: 6.00 Build 0)  -->
<!DOCTYPE svg PUBLIC "-//W3C//DTD SVG 1.1//EN" "http://www.w3.org/Graphics/SVG/1.1/DTD/svg11.dtd">
<svg version="1.1" id="Layer_1" xmlns="http://www.w3.org/2000/svg" xmlns:xlink="http://www.w3.org/1999/xlink" x="0px" y="0px"
	 width="112.587px" height="107.692px" viewBox="0 0 112.587 107.692" enable-background="new 0 0 112.587 107.692"
	 xml:space="preserve">
<circle fill="#E1F3F4" cx="56.293" cy="53.848" r="46.25"/>
<g>
	<path fill="#FED7AF" d="M29.365,55.277c0,0-1.044,1.113-1.551-1.537c-0.542-2.833-0.522-4.37,0.448-4.695
		c0.622-0.207,0.801,0.323,0.801,0.323L29.365,55.277z"/>
	<path fill="#FED7AF" d="M31.464,59.271v3.305c0,0.818,0.413,1.582,1.097,2.031c1.218,0.8,3.02,1.979,3.057,1.979
		c0.037,0,1.873-1.182,3.112-1.981c0.691-0.447,1.112-1.219,1.112-2.042v-3.485L31.464,59.271z"/>
	<path fill="#F5CDA5" d="M31.464,60.744c1.128,1.249,2.538,1.932,4.104,1.932c1.643,0,3.117-0.745,4.272-2.115v-1.482l-8.377,0.193
		V60.744z"/>
	<path fill="#FFD9AF" d="M35.604,61.673c3.823,0,6.757-4.008,6.757-10.645c0-8.276-2.428-10.199-6.757-10.199
		c-4.332,0-6.76,1.922-6.76,10.199C28.845,57.665,31.778,61.673,35.604,61.673z"/>
	<path fill="#FED7AF" d="M41.938,55.277c0,0,1.044,1.113,1.55-1.537c0.542-2.833,0.525-4.37-0.448-4.695
		c-0.621-0.207-0.799,0.323-0.799,0.323L41.938,55.277z"/>
	<path fill="#FFE1B9" d="M35.688,40.831v20.837c3.781-0.061,6.673-4.053,6.673-10.64C42.361,42.806,39.965,40.856,35.688,40.831z"/>
	<path fill="#594B4A" d="M35.568,38.422c-7.322,0-9.565,7.073-6.76,13.598h0.803c0,0-0.628-5.04,1.991-8.013
		c0,0-0.96,4.583,4.049,4.583c0,0-3.126-2.914-1.396-4.644c0,0,1.002,4.159,5.555,4.159c0,0-1.549-1.306-0.911-3.765
		c0,0,3.126,4.705,3.036,7.68h0.756C45.223,45.646,43.998,38.422,35.568,38.422z"/>
	<path fill="#F47821" d="M47.458,67.975c-0.163-0.517-0.494-0.963-0.94-1.27l-6.678-4.587c0,0-0.963,3.313-4.188,3.313
		s-4.188-3.313-4.188-3.313l-6.677,4.587c-0.447,0.307-0.778,0.754-0.941,1.27l-1.934,6.123h13.302h0.389h13.79L47.458,67.975z"/>
</g>
<g>
	<path fill="#594B4A" d="M78.546,40.244c1.275-1.517,10.809,0.183,9.774,11.778c-0.402,4.518-5.463,6.556-5.463,6.556h-4.312V40.244
		z"/>
	<path fill="#594B4A" d="M86.121,42.987c0.819-2.439,8.59-3.093,8.59,6.188c0,3.513-1.819,4.242-1.819,7.521
		s2.731,3.643,3.398,2.792c0,0-6.677,6.678-10.456-2.875L86.121,42.987z"/>
	<path fill="#594B4A" d="M70.951,42.987c-0.819-2.439-8.589-3.093-8.589,6.188c0,3.513,1.821,4.242,1.821,7.521
		s-2.73,3.643-3.4,2.792c0,0,6.677,6.678,10.457-2.875L70.951,42.987z"/>
	<path fill="#FED7AF" d="M78.546,67.703l4.088-3.243c0,0-0.587-0.792-0.84-3.245h-3.248l0,0h-3.245
		c-0.253,2.453-0.841,3.245-0.841,3.245L78.546,67.703v0.002l0,0l0,0V67.703z"/>
	<path fill="#F5CDA5" d="M81.794,61.215h-3.248l0,0h-3.245c-0.026,0.253-0.056,0.483-0.09,0.702
		c0.977,0.778,2.109,1.194,3.335,1.194c1.228,0,2.359-0.416,3.337-1.194C81.85,61.698,81.82,61.467,81.794,61.215z"/>
	<path fill="#594B4A" d="M78.571,40.244c-1.275-1.517-10.807,0.183-9.774,11.778c0.403,4.518,5.465,6.556,5.465,6.556h4.31V40.244z"
		/>
	<path fill="#FFD9AF" d="M78.546,62.334c3.825,0,6.76-4.006,6.76-10.643c0-8.276-2.429-10.2-6.76-10.2
		c-4.329,0-6.757,1.923-6.757,10.2C71.789,58.328,74.723,62.334,78.546,62.334z"/>
	<path fill="#FFE1B9" d="M78.632,41.494V62.33c3.782-0.061,6.674-4.051,6.674-10.639C85.306,43.469,82.907,41.518,78.632,41.494z"/>
	<path fill="#FED7AF" d="M72.31,55.939c0,0-1.044,1.113-1.549-1.537c-0.543-2.834-0.524-4.371,0.446-4.695
		c0.622-0.207,0.8,0.322,0.8,0.322L72.31,55.939z"/>
	<path fill="#FED7AF" d="M84.882,55.939c0,0,1.044,1.113,1.551-1.537c0.541-2.834,0.522-4.371-0.447-4.695
		c-0.623-0.207-0.803,0.322-0.803,0.322L84.882,55.939z"/>
	<path fill="#594B4A" d="M78.521,45.349c-1.894,0-3.795-1.479-4.726-0.999c-0.932,0.48-1.943,1.282-1.699,8.152
		c0,0-4.331-5.625,1.093-9.773c1.492-1.141,4.589-1.93,5.382-1.898l0,0L78.521,45.349z"/>
	<path fill="#594B4A" d="M78.596,45.349c1.895,0,3.796-1.479,4.727-0.999c0.93,0.48,1.941,1.282,1.699,8.152
		c0,0,4.333-5.625-1.093-9.773c-1.492-1.141-4.591-1.93-5.383-1.898l0,0L78.596,45.349z"/>
	<path fill="#DA5326" d="M90.479,68.104c-0.188-0.595-0.598-1.095-1.145-1.396l-7.32-4.033c0,0-0.157,2.758-3.383,2.758
		s-3.552-2.758-3.552-2.758l-7.166,4.031c-0.537,0.303-0.939,0.798-1.125,1.385l-1.896,6.006h13.302h0.389h13.788L90.479,68.104z"/>
</g>
<g>
	<g>
		<path fill="#FED7AF" d="M57.3,64.549l5.606-4.452c0,0-0.808-1.084-1.153-4.451H57.3l0,0h-4.453
			c-0.346,3.367-1.153,4.451-1.153,4.451L57.3,64.549L57.3,64.549L57.3,64.549L57.3,64.549L57.3,64.549z"/>
		<path fill="#F5CDA5" d="M61.753,55.646H57.3l0,0h-4.453c-0.036,0.347-0.078,0.663-0.121,0.964
			c1.338,1.068,2.892,1.641,4.574,1.641s3.236-0.572,4.574-1.641C61.83,56.309,61.788,55.992,61.753,55.646z"/>
		<path fill="#FED7AF" d="M48.745,48.411c0,0-1.433,1.526-2.129-2.109c-0.744-3.886-0.718-5.996,0.615-6.44
			c0.854-0.284,1.098,0.442,1.098,0.442L48.745,48.411z"/>
		<path fill="#FFD9AF" d="M57.3,57.182c5.247,0,9.271-5.496,9.271-14.6c0-11.353-3.332-13.991-9.271-13.991
			c-5.94,0-9.271,2.638-9.271,13.991C48.028,51.686,52.055,57.182,57.3,57.182z"/>
		<path fill="#FED7AF" d="M65.987,48.411c0,0,1.434,1.526,2.129-2.109c0.743-3.886,0.718-5.996-0.616-6.44
			c-0.853-0.284-1.097,0.442-1.097,0.442L65.987,48.411z"/>
		<path fill="#FFE1B9" d="M57.414,28.593v28.582c5.19-0.082,9.156-5.556,9.156-14.593C66.57,31.303,63.282,28.628,57.414,28.593z"/>
	</g>
	<path fill="#CD5628" d="M57.212,26.187c-10.571,0-11.386,10.363-10.898,14.101c0.243,1.874,1.715,3.666,1.715,3.666
		s0.387-5.054,3.665-6.497c3.274-1.443,8.063-0.667,10.382-4.164c2.721,4.141,3.933,5.884,4.465,10.661
		C69.561,40.788,71.957,26.298,57.212,26.187z"/>
	<ellipse fill="#CD5628" cx="57.212" cy="26.187" rx="5.972" ry="3.609"/>
	<polygon fill="#E6E6E5" points="57.3,62.105 49.847,61.105 57.3,74.098 64.753,61.105 	"/>
	<polygon fill="#F1F0F0" points="52.534,57.697 51.693,58.108 49.847,61.105 55.343,68.186 57.3,62.105 52.404,58.25 	"/>
	<polygon fill="#F1F0F0" points="62.066,57.697 62.906,58.108 64.753,61.105 59.257,68.186 57.3,62.105 62.194,58.25 	"/>
	<path fill="#026579" d="M49.847,61.105l-6.438,3.905c-0.757,0.459-1.3,1.2-1.509,2.06l-1.714,7.027H57.3L49.847,61.105z"/>
	<path fill="#026579" d="M64.753,61.105l6.438,3.905c0.757,0.46,1.3,1.2,1.509,2.06l1.713,7.027H57.3L64.753,61.105z"/>
</g>
<rect x="40.187" y="74.098" fill="#026579" width="34.226" height="4.914"/>
<g>
	<path fill="#FFF0B5" d="M56.668,67.071c3.725-5.303,10.305-4.955,18.418-2.82c0.374,0.68,0.867,1.176,0.867,1.176l-19.285,2.348
		V67.071z"/>
	<polygon fill="#026579" points="76.586,90.067 58.285,91.451 58.285,66.764 76.586,65.378 	"/>
	<path fill="#EBDCA0" d="M75.258,64.543c0,0-0.303-0.021-0.83-0.104c-0.525-0.08-1.276-0.192-2.178-0.328
		c-0.9-0.123-1.953-0.253-3.084-0.331c-1.127-0.098-2.336-0.121-3.537-0.058c-0.6,0.038-1.201,0.059-1.785,0.156
		c-0.59,0.062-1.154,0.188-1.701,0.322c-0.555,0.103-1.052,0.328-1.547,0.47c-0.486,0.171-0.91,0.415-1.322,0.598
		c-0.396,0.213-0.726,0.464-1.041,0.652c-0.326,0.18-0.539,0.424-0.742,0.593c-0.4,0.352-0.629,0.553-0.629,0.553
		s0.206-0.225,0.566-0.617c0.189-0.188,0.389-0.455,0.699-0.665c0.301-0.22,0.619-0.506,1.017-0.74
		c0.409-0.21,0.835-0.483,1.325-0.686c0.498-0.173,1.004-0.438,1.572-0.545c0.56-0.147,1.141-0.288,1.742-0.36
		c0.598-0.11,1.211-0.145,1.824-0.19c1.227-0.044,2.454,0.001,3.594,0.119c1.145,0.098,2.193,0.313,3.092,0.475
		c0.896,0.18,1.635,0.373,2.152,0.494C74.963,64.472,75.258,64.543,75.258,64.543z"/>
	<path fill="#EBDCA0" d="M75.635,65.062c0,0-1.155-0.04-2.875-0.206c-0.859-0.088-1.863-0.15-2.936-0.221
		c-0.536-0.026-1.09-0.056-1.652-0.055c-0.563-0.019-1.135,0.014-1.705,0.026c-0.568,0.039-1.141,0.048-1.697,0.122
		c-0.561,0.049-1.105,0.139-1.633,0.23c-0.529,0.084-1.027,0.218-1.511,0.311c-0.474,0.132-0.921,0.257-1.333,0.372
		c-0.406,0.141-0.779,0.271-1.109,0.385c-0.335,0.103-0.605,0.246-0.84,0.338c-0.466,0.192-0.732,0.303-0.732,0.303
		s0.252-0.14,0.693-0.385c0.227-0.112,0.486-0.281,0.813-0.414c0.322-0.144,0.685-0.312,1.088-0.472
		c0.413-0.14,0.859-0.292,1.331-0.452c0.483-0.121,0.986-0.292,1.524-0.379c0.535-0.104,1.089-0.206,1.659-0.265
		c0.566-0.085,1.148-0.107,1.728-0.155c0.581-0.003,1.161-0.024,1.731,0.004c0.571,0.009,1.131,0.051,1.673,0.086
		c1.081,0.09,2.083,0.236,2.938,0.363c0.853,0.14,1.563,0.256,2.061,0.337C75.351,65.016,75.635,65.062,75.635,65.062z"/>
	<path fill="#FFF0B5" d="M56.668,67.071c-3.723-5.303-10.305-4.955-18.416-2.82c-0.375,0.68-0.867,1.176-0.867,1.176l19.283,2.348
		V67.071z"/>
	<path fill="#056F83" d="M58.285,91.473c-1.262,0.409-1.973,0.409-3.231,0c0-8.235,0-16.474,0-24.709
		c1.259,0.408,1.97,0.408,3.231,0C58.285,74.999,58.285,83.237,58.285,91.473z"/>
	<path fill="#058C83" d="M58.285,71.229c-1.262,0.409-1.973,0.409-3.231,0c0-0.616,0-0.923,0-1.54c1.259,0.407,1.97,0.407,3.231,0
		C58.285,70.306,58.285,70.612,58.285,71.229z"/>
	<path fill="#058C83" d="M58.285,87.507c-1.262,0.412-1.973,0.412-3.231,0c0-0.614,0-0.923,0-1.537c1.259,0.41,1.97,0.41,3.231,0
		C58.285,86.584,58.285,86.893,58.285,87.507z"/>
	<path fill="#058C83" d="M58.285,79.58c-1.261,0.409-1.973,0.409-3.231,0c0-0.615,0-0.924,0-1.539c1.259,0.408,1.97,0.408,3.231,0
		C58.285,78.656,58.285,78.965,58.285,79.58z"/>
	<polygon fill="#026579" points="36.752,90.067 55.054,91.451 55.054,66.764 36.752,65.378 	"/>
	<path fill="#EBDCA0" d="M38.08,64.543c0,0,0.296-0.071,0.814-0.193c0.516-0.121,1.254-0.314,2.15-0.494
		c0.898-0.162,1.947-0.377,3.092-0.475c1.14-0.118,2.367-0.163,3.594-0.119c0.613,0.046,1.227,0.08,1.824,0.19
		c0.602,0.072,1.182,0.214,1.74,0.36c0.57,0.108,1.075,0.373,1.574,0.546c0.488,0.201,0.914,0.476,1.324,0.685
		c0.396,0.234,0.716,0.521,1.016,0.74c0.313,0.21,0.51,0.478,0.699,0.666c0.361,0.392,0.566,0.616,0.566,0.616
		s-0.228-0.201-0.629-0.553c-0.202-0.168-0.416-0.413-0.741-0.593c-0.315-0.188-0.646-0.439-1.041-0.652
		c-0.413-0.183-0.836-0.427-1.321-0.598c-0.496-0.142-0.992-0.367-1.548-0.47c-0.546-0.134-1.112-0.261-1.702-0.322
		c-0.582-0.098-1.184-0.118-1.783-0.156c-1.201-0.063-2.41-0.04-3.537,0.058c-1.131,0.078-2.184,0.207-3.084,0.331
		c-0.9,0.135-1.652,0.248-2.178,0.328C38.383,64.521,38.08,64.543,38.08,64.543z"/>
	<path fill="#EBDCA0" d="M37.703,65.062c0,0,0.285-0.046,0.783-0.126c0.498-0.081,1.208-0.197,2.061-0.337
		c0.855-0.127,1.857-0.273,2.939-0.363c0.541-0.035,1.101-0.077,1.672-0.086c0.57-0.028,1.15-0.007,1.732-0.004
		c0.579,0.048,1.16,0.07,1.727,0.155c0.569,0.059,1.123,0.161,1.659,0.265c0.538,0.087,1.04,0.258,1.524,0.379
		c0.472,0.16,0.918,0.313,1.33,0.452c0.404,0.16,0.768,0.328,1.089,0.472c0.327,0.133,0.587,0.302,0.813,0.414
		c0.442,0.245,0.694,0.385,0.694,0.385s-0.267-0.11-0.732-0.303c-0.234-0.091-0.505-0.235-0.841-0.338
		c-0.33-0.114-0.702-0.244-1.107-0.384c-0.413-0.116-0.86-0.241-1.334-0.373c-0.483-0.093-0.983-0.227-1.511-0.311
		c-0.527-0.092-1.072-0.182-1.633-0.23c-0.557-0.074-1.129-0.083-1.697-0.122c-0.57-0.013-1.142-0.045-1.705-0.026
		c-0.563-0.001-1.117,0.028-1.652,0.055c-1.072,0.07-2.076,0.133-2.936,0.221C38.858,65.021,37.703,65.062,37.703,65.062z"/>
	<path opacity="0.2" fill="#056F83" d="M58.285,91.473c0-8.131,0-16.268,0-24.401h-1.614c0,0,0,0-0.003,0v24.708
		C57.16,91.779,57.654,91.678,58.285,91.473z"/>
	<polygon fill="#F47821" points="62.902,74.791 61.634,74.036 60.364,74.962 60.364,66.604 62.902,66.434 	"/>
	<polygon fill="#F78C1F" points="61.787,66.511 61.634,66.521 61.634,74.036 62.902,74.791 62.902,66.434 	"/>
</g>
</svg>
