<?xml version="1.0" encoding="utf-8"?>
<!-- Generator: Adobe Illustrator 16.0.0, SVG Export Plug-In . SVG Version: 6.00 Build 0)  -->
<!DOCTYPE svg PUBLIC "-//W3C//DTD SVG 1.1//EN" "http://www.w3.org/Graphics/SVG/1.1/DTD/svg11.dtd">
<svg version="1.1" id="Layer_1" xmlns="http://www.w3.org/2000/svg" xmlns:xlink="http://www.w3.org/1999/xlink" x="0px" y="0px"
	 width="792px" height="612px" viewBox="0 0 792 612" enable-background="new 0 0 792 612" xml:space="preserve">
<path fill="#666666" d="M423.014,11.236c-14.941-14.941-39.206-14.941-54.147,0l-76.5,76.5
	c-10.997,10.997-14.224,27.373-8.248,41.716s19.842,23.667,35.381,23.667h38.25v114.75H243v-38.25
	c0-15.419-9.323-29.405-23.667-35.381s-30.72-2.63-41.717,8.248l-76.5,76.5c-14.941,14.941-14.941,39.207,0,54.148l76.5,76.5
	c10.997,10.997,27.373,14.224,41.717,8.247S243,398.039,243,382.5v-38.25h114.75V459H319.5c-15.419,0-29.405,9.323-35.381,23.667
	s-2.629,30.72,8.248,41.717l76.5,76.5c14.941,14.941,39.206,14.941,54.147,0l76.5-76.5c10.997-10.997,14.225-27.373,8.248-41.717
	S487.92,459,472.381,459h-38.25V344.25h114.75v38.25c0,15.42,9.323,29.404,23.667,35.381s30.72,2.63,41.716-8.247l76.5-76.5
	c14.941-14.941,14.941-39.207,0-54.148l-76.5-76.5c-10.996-10.997-27.372-14.224-41.716-8.248s-23.667,19.842-23.667,35.381v38.25
	h-114.75V153.12h38.25c15.419,0,29.404-9.324,35.381-23.667s2.63-30.719-8.248-41.716L423.014,11.236L423.014,11.236z"/>
</svg>
