<?xml version="1.0" encoding="utf-8"?>
<!-- Generator: Adobe Illustrator 16.0.0, SVG Export Plug-In . SVG Version: 6.00 Build 0)  -->
<!DOCTYPE svg PUBLIC "-//W3C//DTD SVG 1.1//EN" "http://www.w3.org/Graphics/SVG/1.1/DTD/svg11.dtd">
<svg version="1.1" id="Layer_1" xmlns="http://www.w3.org/2000/svg" xmlns:xlink="http://www.w3.org/1999/xlink" x="0px" y="0px"
	 width="503px" height="465px" viewBox="0 0 503 465" enable-background="new 0 0 503 465" xml:space="preserve">
<path fill="#AB9FCD" d="M445.78,310.209H175.734c-3.1,0-5.613-2.511-5.613-5.611V134.72c0-3.1,2.513-5.613,5.613-5.613H445.78
	c3.1,0,5.613,2.514,5.613,5.613v169.878C451.393,307.698,448.879,310.209,445.78,310.209z"/>
<path fill="#FFFFFF" d="M440.705,303.256H180.806c-2.813,0-5.094-2.28-5.094-5.096V141.156c0-2.813,2.28-5.094,5.094-5.094h259.899
	c2.813,0,5.095,2.281,5.095,5.094v157.006C445.799,300.976,443.519,303.256,440.705,303.256z"/>
<g opacity="0.36">
	<path fill="#AB9FCD" d="M175.714,155.402v-14.248c0-2.813,2.28-5.094,5.093-5.094h259.898c2.813,0,5.095,2.281,5.095,5.094v14.248
		H175.714z"/>
</g>
<path fill="#AB9FCD" d="M185.529,149.076c1.317,0,2.383-1.067,2.383-2.384s-1.066-2.384-2.383-2.384
	c-1.315,0-2.384,1.067-2.384,2.384S184.213,149.076,185.529,149.076z"/>
<g opacity="0.36">
	<path fill="#AB9FCD" d="M193.515,149.075c1.316,0,2.383-1.067,2.383-2.383c0-1.315-1.067-2.382-2.383-2.382
		s-2.382,1.067-2.382,2.382C191.133,148.008,192.199,149.075,193.515,149.075z"/>
</g>
<path fill="#FFFFFF" d="M201.173,149.075c1.316,0,2.383-1.067,2.383-2.383c0-1.315-1.067-2.382-2.383-2.382
	s-2.382,1.067-2.382,2.382C198.791,148.008,199.857,149.075,201.173,149.075z"/>
<g opacity="0.2">
	<path fill="#AB9FCD" d="M339.475,283.451H193.84c-1.81,0-3.278-1.469-3.278-3.279V179.471c0-1.81,1.468-3.278,3.278-3.278h145.635
		c1.81,0,3.278,1.468,3.278,3.278v100.701C342.753,281.982,341.284,283.451,339.475,283.451z"/>
</g>
<path fill="#FFFFFF" d="M225.001,210.275h-23.646c-0.791,0-1.434-0.642-1.434-1.433v-21.682c0-0.791,0.643-1.432,1.434-1.432h23.646
	c0.791,0,1.432,0.641,1.432,1.432v21.682C226.433,209.634,225.792,210.275,225.001,210.275z"/>
<path fill="#AB9FCD" d="M213.178,205.194c3.909,0,7.076-3.168,7.076-7.077c0-3.908-3.167-7.076-7.076-7.076
	c-3.907,0-7.077,3.168-7.077,7.076C206.101,202.026,209.271,205.194,213.178,205.194z"/>
<path fill="#FFFFFF" d="M247.522,190.867h-16.241c-0.436,0-0.787-0.354-0.787-0.788c0-0.436,0.351-0.789,0.787-0.789h16.241
	c0.435,0,0.788,0.354,0.788,0.789C248.31,190.513,247.956,190.867,247.522,190.867z"/>
<path fill="#2D3962" d="M253.604,195.338h-22.323c-0.436,0-0.787-0.354-0.787-0.789s0.351-0.787,0.787-0.787h22.323
	c0.435,0,0.788,0.354,0.788,0.787C254.392,194.984,254.038,195.338,253.604,195.338z"/>
<path fill="#2D3962" d="M253.604,199.129h-22.323c-0.436,0-0.787-0.353-0.787-0.787c0-0.436,0.351-0.788,0.787-0.788h22.323
	c0.435,0,0.788,0.352,0.788,0.788C254.392,198.776,254.038,199.129,253.604,199.129z"/>
<path fill="#2D3962" d="M253.604,202.921h-22.323c-0.436,0-0.787-0.353-0.787-0.788c0-0.435,0.351-0.788,0.787-0.788h22.323
	c0.435,0,0.788,0.353,0.788,0.788C254.392,202.569,254.038,202.921,253.604,202.921z"/>
<path fill="#2D3962" d="M241.927,206.712h-10.646c-0.436,0-0.787-0.352-0.787-0.787c0-0.435,0.351-0.788,0.787-0.788h10.646
	c0.435,0,0.789,0.353,0.789,0.788C242.716,206.361,242.364,206.712,241.927,206.712z"/>
<path fill="#FFFFFF" d="M303.99,225.921h-35.396c-1.185,0-2.146-0.961-2.146-2.146v-32.456c0-1.185,0.961-2.145,2.146-2.145h35.396
	c1.184,0,2.146,0.96,2.146,2.145v32.456C306.135,224.96,305.173,225.921,303.99,225.921z"/>
<path fill="#EBA23D" d="M295.704,198.244h-18.827v18.829h18.827V198.244z"/>
<path fill="#FFFFFF" d="M303.99,269.13h-35.396c-1.185,0-2.146-0.961-2.146-2.145v-32.457c0-1.184,0.961-2.145,2.146-2.145h35.396
	c1.184,0,2.146,0.961,2.146,2.145v32.457C306.135,268.169,305.173,269.13,303.99,269.13z"/>
<path fill="#F8BF79" d="M286.292,260.281c-5.199,0-9.413-4.216-9.413-9.414c0-5.199,4.215-9.413,9.413-9.413
	s9.412,4.215,9.412,9.413S291.49,260.281,286.292,260.281z"/>
<path fill="#FFFFFF" d="M326.524,206.788h-16.241c-0.435,0-0.788-0.353-0.788-0.789s0.354-0.788,0.788-0.788h16.241
	c0.435,0,0.788,0.354,0.788,0.788C327.312,206.436,326.958,206.788,326.524,206.788z"/>
<path fill="#2D3962" d="M332.605,211.259h-22.322c-0.435,0-0.788-0.353-0.788-0.788c0-0.436,0.354-0.787,0.788-0.787h22.322
	c0.436,0,0.788,0.352,0.788,0.787C333.393,210.907,333.04,211.259,332.605,211.259z"/>
<path fill="#2D3962" d="M332.605,215.051h-22.322c-0.435,0-0.788-0.352-0.788-0.788c0-0.435,0.354-0.788,0.788-0.788h22.322
	c0.436,0,0.788,0.353,0.788,0.788C333.393,214.699,333.04,215.051,332.605,215.051z"/>
<path fill="#2D3962" d="M332.605,218.844h-22.322c-0.435,0-0.788-0.352-0.788-0.788s0.354-0.788,0.788-0.788h22.322
	c0.436,0,0.788,0.352,0.788,0.788C333.393,218.49,333.04,218.844,332.605,218.844z"/>
<path fill="#2D3962" d="M320.931,222.635h-10.648c-0.435,0-0.788-0.353-0.788-0.787c0-0.436,0.354-0.788,0.788-0.788h10.648
	c0.436,0,0.788,0.352,0.788,0.788C321.719,222.282,321.365,222.635,320.931,222.635z"/>
<path fill="#FFFFFF" d="M326.524,250.302h-16.241c-0.435,0-0.788-0.353-0.788-0.789c0-0.435,0.354-0.788,0.788-0.788h16.241
	c0.435,0,0.788,0.354,0.788,0.788C327.312,249.949,326.958,250.302,326.524,250.302z"/>
<path fill="#2D3962" d="M332.605,254.773h-22.322c-0.435,0-0.788-0.353-0.788-0.789c0-0.435,0.354-0.787,0.788-0.787h22.322
	c0.436,0,0.788,0.353,0.788,0.787C333.393,254.421,333.04,254.773,332.605,254.773z"/>
<path fill="#2D3962" d="M332.605,258.564h-22.322c-0.435,0-0.788-0.352-0.788-0.787c0-0.437,0.354-0.789,0.788-0.789h22.322
	c0.436,0,0.788,0.353,0.788,0.789C333.393,258.211,333.04,258.564,332.605,258.564z"/>
<path fill="#2D3962" d="M332.605,262.355h-22.322c-0.435,0-0.788-0.351-0.788-0.788c0-0.436,0.354-0.786,0.788-0.786h22.322
	c0.436,0,0.788,0.351,0.788,0.786C333.393,262.005,333.04,262.355,332.605,262.355z"/>
<path fill="#2D3962" d="M320.931,266.148h-10.648c-0.435,0-0.788-0.353-0.788-0.787c0-0.438,0.354-0.789,0.788-0.789h10.648
	c0.436,0,0.788,0.352,0.788,0.789C321.719,265.796,321.365,266.148,320.931,266.148z"/>
<path fill="#FFFFFF" d="M225.001,242.094h-23.646c-0.791,0-1.434-0.641-1.434-1.433v-21.682c0-0.792,0.643-1.433,1.434-1.433h23.646
	c0.791,0,1.432,0.641,1.432,1.433v21.682C226.433,241.453,225.792,242.094,225.001,242.094z"/>
<path fill="#C8C1E0" d="M219.467,223.497h-12.578v12.578h12.578V223.497z"/>
<path fill="#FFFFFF" d="M247.522,222.686h-16.241c-0.436,0-0.787-0.354-0.787-0.789c0-0.436,0.351-0.788,0.787-0.788h16.241
	c0.435,0,0.788,0.354,0.788,0.788C248.31,222.332,247.956,222.686,247.522,222.686z"/>
<path fill="#2D3962" d="M253.604,227.156h-22.323c-0.436,0-0.787-0.352-0.787-0.787s0.351-0.788,0.787-0.788h22.323
	c0.435,0,0.788,0.353,0.788,0.788S254.038,227.156,253.604,227.156z"/>
<path fill="#2D3962" d="M253.604,230.948h-22.323c-0.436,0-0.787-0.352-0.787-0.787c0-0.436,0.351-0.788,0.787-0.788h22.323
	c0.435,0,0.788,0.352,0.788,0.788C254.392,230.596,254.038,230.948,253.604,230.948z"/>
<path fill="#2D3962" d="M253.604,234.74h-22.323c-0.436,0-0.787-0.353-0.787-0.788c0-0.435,0.351-0.788,0.787-0.788h22.323
	c0.435,0,0.788,0.354,0.788,0.788C254.392,234.388,254.038,234.74,253.604,234.74z"/>
<path fill="#2D3962" d="M241.927,238.531h-10.646c-0.436,0-0.787-0.353-0.787-0.787c0-0.436,0.351-0.788,0.787-0.788h10.646
	c0.435,0,0.789,0.353,0.789,0.788C242.716,238.179,242.364,238.531,241.927,238.531z"/>
<path fill="#FFFFFF" d="M225.001,273.914h-23.646c-0.791,0-1.434-0.642-1.434-1.434v-21.682c0-0.792,0.643-1.434,1.434-1.434h23.646
	c0.791,0,1.432,0.642,1.432,1.434v21.682C226.433,273.272,225.792,273.914,225.001,273.914z"/>
<path fill="#AB9FCD" d="M216.933,255.297h-7.51l-3.757,6.504l3.757,6.505h7.51l3.755-6.505L216.933,255.297z"/>
<path fill="#FFFFFF" d="M247.522,254.505h-16.241c-0.436,0-0.787-0.353-0.787-0.788c0-0.438,0.351-0.788,0.787-0.788h16.241
	c0.435,0,0.788,0.351,0.788,0.788C248.31,254.152,247.956,254.505,247.522,254.505z"/>
<path fill="#2D3962" d="M253.604,258.975h-22.323c-0.436,0-0.787-0.351-0.787-0.787c0-0.435,0.351-0.789,0.787-0.789h22.323
	c0.435,0,0.788,0.354,0.788,0.789C254.392,258.624,254.038,258.975,253.604,258.975z"/>
<path fill="#2D3962" d="M253.604,262.769h-22.323c-0.436,0-0.787-0.353-0.787-0.788c0-0.437,0.351-0.789,0.787-0.789h22.323
	c0.435,0,0.788,0.353,0.788,0.789C254.392,262.415,254.038,262.769,253.604,262.769z"/>
<path fill="#2D3962" d="M253.604,266.56h-22.323c-0.436,0-0.787-0.354-0.787-0.788c0-0.436,0.351-0.789,0.787-0.789h22.323
	c0.435,0,0.788,0.354,0.788,0.789C254.392,266.206,254.038,266.56,253.604,266.56z"/>
<path fill="#2D3962" d="M241.927,270.352h-10.646c-0.436,0-0.787-0.352-0.787-0.789c0-0.435,0.351-0.787,0.787-0.787h10.646
	c0.435,0,0.789,0.353,0.789,0.787C242.716,270,242.364,270.352,241.927,270.352z"/>
<defs>
	<filter id="Adobe_OpacityMaskFilter" filterUnits="userSpaceOnUse" x="303.174" y="159.744" width="133.059" height="206.562">
		<feColorMatrix  type="matrix" values="1 0 0 0 0  0 1 0 0 0  0 0 1 0 0  0 0 0 1 0"/>
	</filter>
</defs>
<mask maskUnits="userSpaceOnUse" x="303.174" y="159.744" width="133.059" height="206.562" id="mask0_193_177">
	<path fill="#FFFFFF" filter="url(#Adobe_OpacityMaskFilter)" d="M440.705,303.256H180.806c-2.813,0-5.094-2.28-5.094-5.096V141.156
		c0-2.813,2.28-5.094,5.094-5.094h259.899c2.813,0,5.095,2.281,5.095,5.094v157.006
		C445.799,300.976,443.519,303.256,440.705,303.256z"/>
</mask>
<g mask="url(#mask0_193_177)">
	<path fill="#2D3962" d="M408.689,286.143l-48.247-0.346c0,0-10.017,58.554-10.543,79.071l57.507,1.438
		c0,0,3.429-25.447,3.834-32.586C411.886,322.315,408.689,286.143,408.689,286.143z"/>
	<path fill="#116E63" d="M406.866,225.494c2.936,8.23,11.401,45.261,9.463,79.229l-60.825-1.447c0,0,3.834-35.35,12.017-58.558
		c3.641-10.325,14.768-20.028,16.863-22.397l19.693,1.188C405.362,223.579,406.464,224.363,406.866,225.494z"/>
	<path fill="#116E63" d="M436.208,268.174c-0.556-15.753-23.342-48.671-33.669-43.914c-11.918,5.488,10.958,39.385,15.141,47.822
		c0.473,0.957-10.742,35.534-10.742,35.534c0.965,5.665,11.034,6.73,11.034,6.73S437.014,291.047,436.208,268.174z"/>
	<path fill="#2D3962" d="M416.101,269.26c-0.133,0-0.263-0.074-0.325-0.203l-8.97-18.268c-0.089-0.181-0.015-0.396,0.166-0.485
		c0.179-0.091,0.396-0.017,0.486,0.166l8.97,18.267c0.087,0.181,0.015,0.397-0.166,0.487
		C416.21,269.248,416.156,269.26,416.101,269.26z"/>
	<path fill="#2D3962" d="M407.33,306.533c-0.037,0-0.073-0.007-0.11-0.019c-0.191-0.062-0.296-0.265-0.236-0.455l9.396-29.443
		c0.061-0.191,0.267-0.292,0.455-0.235c0.192,0.062,0.296,0.266,0.237,0.457l-9.396,29.44
		C407.629,306.433,407.484,306.533,407.33,306.533z"/>
	<path fill="#E8B69C" d="M373.199,183.426c0,0-3.511,13.875-2.624,22.345c0.838,8,5.918,13.157,13.073,13.164l0.665,5.506
		c0,0,9.53,2.544,18.786-0.178l0.144-12.674l-0.084-26.826l-3.429-5.301l-23.866-3.52L373.199,183.426z"/>
	<path fill="#2D3962" d="M394.049,216.462c-0.951,0.984-9.601,5.967-9.955,6.116c0,0-0.523-4.43-0.48-3.874
		c0.018,0.229,1.889,0.342,4.224-0.335c2.093-0.606,4.271-1.591,5.604-2.242L394.049,216.462z"/>
	<path fill="#2D3962" d="M384.502,219.251c-2.629,0-5.419-0.695-8.199-2.543c-0.167-0.111-0.211-0.337-0.101-0.504
		c0.11-0.166,0.338-0.211,0.504-0.101c6.225,4.139,12.547,2.196,16.752-0.167c0.178-0.097,0.397-0.037,0.496,0.139
		c0.099,0.175,0.035,0.396-0.139,0.495C391.297,217.982,388.047,219.251,384.502,219.251z"/>
	<path fill="#2D3962" d="M388.855,197.976c1.104,0,2-0.896,2-2c0-1.104-0.896-2-2-2c-1.105,0-2.001,0.896-2.001,2
		C386.854,197.08,387.749,197.976,388.855,197.976z"/>
	<path fill="#2D3962" d="M378.54,196.959c1.104,0,2-0.896,2-2s-0.896-2-2-2s-2,0.896-2,2S377.436,196.959,378.54,196.959z"/>
	<path fill="#2D3962" d="M387.834,190.194c0.563-0.46,1.569-0.307,2.307-0.16c0.689,0.137,1.948,0.34,2.437,0.871
		c0.258,0.282,0.298,0.679,0.144,0.976c-0.215,0.413-0.731,0.603-1.237,0.634c-0.446,0.028-0.905-0.052-1.357-0.131
		c-0.609-0.105-1.219-0.212-1.827-0.342c-0.148-0.031-0.303-0.066-0.434-0.146c-0.343-0.214-0.397-0.88-0.34-1.174
		C387.573,190.492,387.68,190.32,387.834,190.194z"/>
	<path fill="#2D3962" d="M380.69,189.52c-0.425-0.59-1.439-0.701-2.188-0.748c-0.701-0.046-1.969-0.174-2.579,0.215
		c-0.32,0.205-0.463,0.579-0.392,0.907c0.102,0.455,0.553,0.771,1.034,0.931c0.423,0.142,0.887,0.184,1.346,0.224
		c0.615,0.054,1.23,0.107,1.853,0.139c0.153,0.007,0.311,0.014,0.457-0.031c0.387-0.118,0.611-0.747,0.63-1.046
		C380.865,189.877,380.804,189.682,380.69,189.52z"/>
	<path fill="#2D3962" d="M382.92,200.836c-0.018,0-0.033-0.001-0.052-0.003c-0.198-0.029-0.337-0.213-0.308-0.412
		c0.021-0.149,0.047-0.365,0.075-0.603c0.053-0.436,0.113-0.938,0.17-1.24c0.036-0.198,0.227-0.324,0.422-0.291
		c0.198,0.036,0.329,0.226,0.293,0.424c-0.055,0.291-0.113,0.774-0.162,1.193c-0.03,0.245-0.057,0.468-0.079,0.621
		C383.255,200.706,383.099,200.836,382.92,200.836z"/>
	<path fill="#2D3962" d="M382.825,202.665c-0.38,0-0.826-0.079-1.199-0.37c-0.509-0.397-0.681-1.106-0.39-1.616
		c0.132-0.228,0.347-0.413,0.624-0.536c0.409-0.179,0.884-0.194,1.303-0.039c0.187,0.069,0.282,0.279,0.214,0.467
		c-0.07,0.188-0.278,0.286-0.467,0.214c-0.237-0.089-0.522-0.08-0.756,0.022c-0.133,0.059-0.236,0.141-0.288,0.233
		c-0.11,0.192-0.016,0.51,0.203,0.681c0.3,0.233,0.737,0.227,0.971,0.207c0.19-0.021,0.378,0.125,0.396,0.324
		c0.022,0.2-0.124,0.377-0.324,0.397C383.026,202.658,382.928,202.665,382.825,202.665z"/>
	<path fill="#2D3962" d="M383.499,207.862c-0.782,0-1.566-0.184-2.26-0.56c-0.177-0.096-0.242-0.316-0.146-0.493
		c0.095-0.176,0.315-0.243,0.494-0.146c1.42,0.771,3.286,0.589,4.534-0.442c0.153-0.127,0.386-0.104,0.511,0.049
		c0.129,0.155,0.107,0.384-0.048,0.512C385.722,207.494,384.612,207.862,383.499,207.862z"/>
	<path fill="#2D3962" d="M371.911,175.047c0,0-3.873,3.637-2.203,8.726c0.746,2.268,3.29,3.68,5.425,3.953
		c3.557,0.454,7.051-1.394,7.063-1.398c-0.061,0.021,1.736,3.057,6.287,3.654c3.107,0.407,4.915,0.188,6.724-1.773
		c0,0,0.351,4.7,5.096,5.552c0,0-1.105,15.455,2.089,20.086c0.287,0.417,9.07,4.56,9.62-3.815c0,0,7.859,0.923,8.106-7.365
		c0,0,7.635-5.869,3.497-14.741c0,0,3.507-8.68-3.495-11.75c0,0,1.938-11.548-11.328-12.164c0,0-2.332-3.096-5.954-3.874
		c-3.706-0.795-6.052-0.459-9.407,1.683c0,0-2.549-2.109-7.095-1.288c-4.113,0.743-4.871,3.81-4.871,3.81s-4.628-0.89-7.681,3.546
		C372.67,169.508,371.813,171.751,371.911,175.047z"/>
	<path fill="#E8B69C" d="M399.696,198.157c2.364-0.887,6.838-2.447,8.934-0.647c1.777,1.527,1.73,4.333,0.038,6.047
		c-2.765,2.795-7.91,3.816-9.442,4.226"/>
	<path fill="#2D3962" d="M407.005,200.48c-0.051,0-0.101-0.01-0.148-0.031c-1.683-0.753-2.906-0.209-2.918-0.204
		c-0.184,0.082-0.397,0.003-0.481-0.18c-0.084-0.182-0.003-0.397,0.181-0.481c0.061-0.028,1.54-0.682,3.517,0.202
		c0.184,0.082,0.266,0.296,0.184,0.479C407.276,200.4,407.144,200.48,407.005,200.48z"/>
	<path fill="#2D3962" d="M404.64,202.671c-0.077,0-0.153-0.024-0.22-0.074c-0.16-0.123-0.19-0.349-0.071-0.509
		c0.006-0.007,0.525-0.701,1.096-2.056c0.08-0.185,0.29-0.27,0.477-0.193c0.185,0.078,0.271,0.291,0.194,0.476
		c-0.61,1.448-1.165,2.182-1.188,2.212C404.858,202.622,404.749,202.671,404.64,202.671z"/>
	<path fill="#2D3962" d="M393.927,226.035c-5.925,0-10.482-1.514-10.55-1.537c-0.189-0.064-0.29-0.271-0.228-0.461
		c0.065-0.188,0.271-0.289,0.461-0.228c0.097,0.034,9.911,3.291,19.371,0.105c0.189-0.065,0.396,0.04,0.459,0.229
		c0.064,0.19-0.038,0.396-0.229,0.461C400.036,225.676,396.82,226.035,393.927,226.035z"/>
	<path fill="#E8B69C" d="M318.412,248.14c0,0-1.929-2.019-3.736-3.648c-2.226-2.003-5.237-5.018-7.227-6.587
		c-1.014-0.798-2.833-2.84-3.752-1.893c-1.129,1.164,3.353,4.786,3.353,4.786c-0.97-0.366-1.533-0.786-2.261,0.066
		c-0.8,0.938,0.574,2.256,0.574,2.256s-1.028-0.735-1.89,0.312c-0.891,1.081,0.719,2.37,1.032,2.857c0,0-0.71-0.052-1.084,0.313
		c-0.315,0.308-0.344,0.987-0.007,1.465c0.193,0.276,1.103,1.36,3.765,3.263c2.297,1.643,4.816,3.073,4.816,3.073L318.412,248.14z"
		/>
	<path fill="#E8B69C" d="M312.383,239.023c1.305-0.472,2.042,1.226,2.774,3.376c0.345,1.021,1.443,3.29,1.338,4.036
		c-0.156,1.099-3.663-2.367-3.663-2.367S309.767,239.978,312.383,239.023z"/>
	<path fill="#2D3962" d="M311.527,247.673c-0.107,0-0.214-0.05-0.287-0.139c-1.309-1.666-0.39-3.517,0.399-4.419
		c-0.193-0.439-0.59-1.38-0.674-1.863c-0.034-0.197,0.099-0.386,0.298-0.418c0.188-0.033,0.385,0.097,0.419,0.296
		c0.074,0.436,0.544,1.525,0.716,1.909c0.063,0.137,0.033,0.3-0.073,0.406c-0.079,0.077-1.871,1.913-0.515,3.639
		c0.124,0.158,0.096,0.387-0.062,0.512C311.684,247.646,311.606,247.673,311.527,247.673z"/>
	<path fill="#2D3962" d="M308.877,245.17c-1.094,0-2.484-0.968-2.65-1.086c-0.166-0.116-0.201-0.343-0.086-0.505
		c0.115-0.164,0.341-0.204,0.506-0.086c0.426,0.303,1.686,1.057,2.379,0.938c0.138-0.023,0.233-0.08,0.302-0.18
		c0.033-0.05,0.071-0.126,0.041-0.276c-0.161-0.816-1.896-2.21-2.952-2.896c-0.168-0.11-0.216-0.334-0.107-0.502
		s0.332-0.217,0.503-0.107c0.306,0.198,2.998,1.979,3.27,3.366c0.06,0.308,0.005,0.595-0.16,0.831
		c-0.178,0.258-0.444,0.424-0.771,0.481C309.061,245.161,308.97,245.17,308.877,245.17z"/>
	<path fill="#2D3962" d="M307.493,247.407c-1.111,0.003-2.472-0.794-2.678-0.918c-0.174-0.103-0.228-0.328-0.124-0.497
		c0.103-0.172,0.326-0.228,0.498-0.124c0.742,0.445,2.418,1.183,2.859,0.608c0.034-0.042,0.07-0.108,0.047-0.244
		c-0.132-0.828-1.951-2.339-3.064-3.096c-0.167-0.113-0.209-0.339-0.096-0.504c0.112-0.167,0.338-0.208,0.503-0.098
		c0.322,0.219,3.148,2.176,3.374,3.582c0.05,0.303-0.015,0.58-0.187,0.804C308.354,247.277,307.944,247.407,307.493,247.407z"/>
	<path fill="#2D3962" d="M306.965,249.758c-0.979,0-2.264-0.856-2.578-1.076c-0.165-0.117-0.203-0.342-0.088-0.507
		c0.116-0.163,0.34-0.202,0.505-0.087c0.939,0.657,2.174,1.171,2.44,0.856c0.05-0.061,0.063-0.114,0.049-0.195
		c-0.131-0.669-1.885-1.849-3.088-2.472c-0.178-0.094-0.247-0.313-0.155-0.492c0.091-0.178,0.31-0.244,0.489-0.154
		c0.536,0.277,3.222,1.728,3.467,2.978c0.06,0.299-0.015,0.578-0.209,0.808C307.586,249.663,307.292,249.758,306.965,249.758z"/>
	<path fill="#116E63" d="M384.982,222.403c-22.817-1.958-43.9,36.243-43.9,36.243l-24.546-13.165l-7.704,8.346
		c0,0,16.712,26.433,39.705,22.002c9.187-1.771,19.557-18.209,19.557-18.209"/>
	<path fill="#2D3962" d="M359.679,276.651c-0.026,0-0.055-0.005-0.081-0.012c-0.195-0.044-0.319-0.237-0.275-0.435
		c1.941-8.534,5.158-25.078,5.189-25.242c0.039-0.199,0.234-0.331,0.426-0.288c0.196,0.037,0.327,0.229,0.289,0.426
		c-0.033,0.167-3.252,16.72-5.193,25.267C359.993,276.535,359.843,276.651,359.679,276.651z"/>
</g>
<path fill="#E8B69C" d="M118.412,183.458c0,0,6.684,26.417,4.996,42.543c-1.596,15.231-11.268,25.052-24.89,25.063l-1.268,10.483
	c0,0-18.143,4.843-35.767-0.342l-0.273-24.131L61.373,186l6.526-10.093l45.439-6.703L118.412,183.458z"/>
<path fill="#2D3962" d="M78.717,246.36c1.811,1.872,18.279,11.357,18.952,11.642c0,0,0.997-8.433,0.916-7.372
	c-0.032,0.436-3.596,0.652-8.042-0.638c-3.984-1.157-8.13-3.029-10.672-4.271L78.717,246.36z"/>
<path fill="#2D3962" d="M96.899,251.913c-6.803,0-13.029-2.43-17.858-5.138c-0.45-0.253-0.611-0.825-0.359-1.276
	c0.253-0.45,0.824-0.61,1.275-0.358c7.951,4.463,19.894,8.142,31.642,0.328c0.433-0.287,1.012-0.171,1.298,0.261
	c0.288,0.43,0.17,1.012-0.261,1.297C107.301,250.577,101.942,251.913,96.899,251.913z"/>
<path fill="#E8B69C" d="M65.818,211.506c-4.501-1.689-13.019-4.659-17.008-1.23c-3.384,2.908-3.296,8.251-0.073,11.512
	c5.263,5.323,15.062,7.268,17.974,8.046"/>
<path fill="#2D3962" d="M51.902,216.174c-0.359,0-0.699-0.206-0.855-0.553c-0.211-0.472,0-1.025,0.472-1.236
	c3.862-1.729,6.774-0.439,6.896-0.383c0.471,0.215,0.677,0.77,0.462,1.241c-0.214,0.467-0.764,0.676-1.236,0.464
	c-0.103-0.045-2.313-0.976-5.359,0.386C52.159,216.149,52.029,216.174,51.902,216.174z"/>
<path fill="#2D3962" d="M56.404,220.343c-0.283,0-0.56-0.127-0.743-0.367c-0.045-0.059-1.118-1.48-2.292-4.267
	c-0.2-0.477,0.023-1.025,0.499-1.227c0.48-0.199,1.026,0.024,1.227,0.5c1.071,2.544,2.046,3.848,2.056,3.86
	c0.312,0.413,0.231,0.999-0.181,1.311C56.8,220.282,56.602,220.343,56.404,220.343z"/>
<path fill="#2D3962" d="M91.071,157.907c-3.418,0.066-24.384,0.957-32.578,3.55c-4.365,1.383-8.686,3.559-11.398,7.248
	c-2.018,2.741-2.992,6.12-3.485,9.488c-1.304,8.913,3.322,33.473,3.322,33.473s3.342-2.649,9.224-2.371
	c1.565,0.074,4.545,0.689,5.895,1.02c0.619,0.15,0.753,12.641,1.319,12.619l7.478-0.872c0.54-0.021-0.421-32.749-0.105-33.168
	c1.424-1.897,7.172-7.163,16.215-6.17c11.079,1.216,24.669,5.456,33.809-0.342c5.832-3.7,8.645-11.917,6.574-19.35
	c-0.152-0.546-3.855-9.468-14.935-9.192C107.27,153.967,99.03,157.752,91.071,157.907z"/>
<path fill="#2D3962" d="M88.607,211.161c2.103,0,3.809-1.706,3.809-3.81s-1.706-3.809-3.809-3.809s-3.81,1.706-3.81,3.809
	S86.504,211.161,88.607,211.161z"/>
<path fill="#2D3962" d="M108.247,209.226c2.104,0,3.809-1.706,3.809-3.809s-1.705-3.81-3.809-3.81c-2.104,0-3.81,1.706-3.81,3.81
	S106.143,209.226,108.247,209.226z"/>
<path fill="#2D3962" d="M90.547,196.344c-1.071-0.876-2.989-0.583-4.392-0.304c-1.313,0.262-3.71,0.646-4.638,1.656
	c-0.491,0.535-0.57,1.294-0.275,1.859c0.409,0.787,1.392,1.149,2.356,1.208c0.849,0.053,1.724-0.099,2.586-0.248
	c1.161-0.203,2.322-0.407,3.477-0.652c0.285-0.061,0.577-0.127,0.825-0.281c0.654-0.406,0.759-1.674,0.646-2.234
	C91.047,196.913,90.84,196.585,90.547,196.344z"/>
<path fill="#2D3962" d="M104.154,195.063c0.811-1.124,2.74-1.333,4.166-1.424c1.336-0.084,3.75-0.33,4.908,0.409
	c0.611,0.391,0.882,1.103,0.743,1.727c-0.193,0.866-1.049,1.468-1.967,1.773c-0.808,0.27-1.691,0.349-2.563,0.426
	c-1.173,0.103-2.349,0.205-3.528,0.264c-0.291,0.015-0.591,0.026-0.87-0.059c-0.736-0.225-1.165-1.421-1.199-1.993
	C103.818,195.741,103.933,195.37,104.154,195.063z"/>
<path fill="#2D3962" d="M99.904,216.651c-0.36,0-0.676-0.264-0.729-0.632c-0.041-0.293-0.092-0.72-0.147-1.189
	c-0.096-0.794-0.204-1.711-0.306-2.261c-0.075-0.4,0.189-0.785,0.59-0.859c0.405-0.073,0.785,0.19,0.859,0.59
	c0.105,0.574,0.221,1.528,0.32,2.355c0.054,0.455,0.104,0.872,0.144,1.156c0.058,0.403-0.223,0.776-0.625,0.834
	C99.975,216.648,99.939,216.651,99.904,216.651z"/>
<path fill="#2D3962" d="M100.088,220.133c-0.198,0-0.386-0.011-0.557-0.029c-0.404-0.041-0.699-0.402-0.657-0.808
	c0.041-0.405,0.396-0.698,0.807-0.658c0.438,0.046,1.256,0.054,1.814-0.383c0.399-0.312,0.576-0.891,0.376-1.238
	c-0.096-0.166-0.282-0.316-0.524-0.423c-0.435-0.192-0.959-0.21-1.404-0.041c-0.381,0.142-0.805-0.053-0.947-0.433
	c-0.143-0.381,0.053-0.805,0.433-0.947c0.811-0.301,1.725-0.274,2.514,0.075c0.536,0.236,0.953,0.594,1.208,1.039
	c0.566,0.988,0.238,2.364-0.748,3.132C101.678,219.98,100.815,220.133,100.088,220.133z"/>
<path fill="#2D3962" d="M98.802,230.027c-2.123,0-4.25-0.705-5.898-2.067c-0.313-0.259-0.357-0.724-0.098-1.037
	c0.259-0.313,0.722-0.358,1.037-0.098c2.36,1.951,5.89,2.295,8.584,0.836c0.356-0.195,0.806-0.062,0.999,0.296
	c0.193,0.357,0.06,0.806-0.297,0.998C101.802,229.676,100.302,230.027,98.802,230.027z"/>
<path fill="#18A594" d="M54.448,227.842c8.836,0,15.996-7.162,15.996-15.995c0-8.834-7.16-15.996-15.996-15.996
	c-8.833,0-15.995,7.162-15.995,15.996C38.453,220.68,45.615,227.842,54.448,227.842z"/>
<path fill="#2D3962" d="M54.448,219.447c4.198,0,7.601-3.403,7.601-7.601s-3.403-7.601-7.601-7.601
	c-4.198,0-7.601,3.403-7.601,7.601S50.25,219.447,54.448,219.447z"/>
<path fill="#2D3962" d="M54.449,223.255c-6.29,0-11.407-5.118-11.407-11.408s5.117-11.407,11.407-11.407s11.408,5.117,11.408,11.407
	C65.856,218.138,60.74,223.255,54.449,223.255z M54.449,201.996c-5.431,0-9.852,4.42-9.852,9.852c0,5.432,4.42,9.852,9.852,9.852
	c5.433,0,9.852-4.419,9.852-9.852C64.3,206.416,59.881,201.996,54.449,201.996z"/>
<path fill="#18A594" d="M47.694,198.909c0,0-1.015-13.125,7.575-26.01c6.37-9.556,22.504-17.761,36.102-14.814
	c0,0-17.418,3.575-27.353,16.086c-8.59,10.817-7.267,24.08-7.267,24.08L47.694,198.909z"/>
<path fill="#E8B69C" d="M19.932,326.593c0,0,3.312,39.052,4.463,43.199c1.151,4.147,2.999,15.315,15.16,17.63
	c16.411,3.158,80.85,0.936,80.85,0.936l-7.35-17.642l-61.204-12.026l-2.806-30.383L19.932,326.593z"/>
<path fill="#E8B69C" d="M220.128,371.075l3.21,14.725c0,0-43.888,1.815-72.348-1.192c-8.929-0.945-36.455-43.29-36.455-43.29
	l27.353-20.105l15.689,33.104L220.128,371.075z"/>
<path fill="#116E63" d="M131.27,269.472c-16.255-10.688-33.707-10.612-33.707-10.612s-8.804,5.308-17.949,4.533
	c-9.145-0.773-17.254-3.614-17.846-6.097c0,0-25.732,2.709-37.518,18.068c-9.625,12.546-7.938,59.786-7.938,59.786l33.345-1.054
	l-13.412,51.062h88.995l-0.947-41.057l29.333-17.639C153.627,326.463,139.768,275.058,131.27,269.472z"/>
<path fill="#2D3962" d="M124.677,354.069c-0.396,0-0.718-0.321-0.718-0.717v-22.35c0-0.396,0.32-0.718,0.718-0.718
	c0.398,0,0.719,0.322,0.719,0.718v22.35C125.396,353.748,125.076,354.069,124.677,354.069z"/>
<path fill="#EFEDEE" d="M78.628,315.607l-9.186,72.91l58.602,7.383c2.33,0.294,4.445-1.281,4.726-3.516l8.167-64.816
	c0.283-2.235-1.377-4.284-3.707-4.578L78.628,315.607z"/>
<path fill="#77C1B9" d="M78.836,313.483l-9.427,74.825l55.333,6.973c2.33,0.293,4.455-1.355,4.747-3.686l8.365-66.394
	c0.293-2.329-1.356-4.455-3.685-4.747L78.836,313.483z"/>
<g opacity="0.08">
	<path fill="#2D3962" d="M124.741,395.281l-55.333-6.973l3.89-30.873c0,0,12.694,16.04,26.755,25.364
		C114.114,392.127,124.741,395.281,124.741,395.281z"/>
</g>
<path fill="#2D3962" d="M117.613,337.006c-0.038,0-0.075-0.003-0.114-0.008l-21.667-2.771c-0.488-0.063-0.832-0.507-0.77-0.995
	c0.063-0.487,0.498-0.83,0.996-0.769l21.667,2.771c0.488,0.062,0.832,0.506,0.77,0.995
	C118.437,336.677,118.055,337.006,117.613,337.006z"/>
<path fill="#2D3962" d="M117.224,342.272c-0.038,0-0.076-0.003-0.114-0.008l-21.668-2.771c-0.487-0.062-0.832-0.507-0.768-0.995
	c0.062-0.486,0.5-0.831,0.995-0.768l21.667,2.771c0.486,0.062,0.832,0.506,0.769,0.995
	C118.048,341.944,117.665,342.272,117.224,342.272z"/>
<path fill="#2D3962" d="M72.897,385.694c-0.038,0-0.075-0.003-0.113-0.008c-0.487-0.062-0.832-0.506-0.771-0.992l8.623-67.869
	c0.062-0.488,0.505-0.833,0.995-0.771c0.486,0.062,0.832,0.507,0.769,0.994l-8.622,67.869
	C73.721,385.367,73.338,385.694,72.897,385.694z"/>
<path fill="#E8B69C" d="M22.746,356.938c0.653,6.314,1.269,11.486,1.648,12.854c1.151,4.147,2.999,15.315,15.16,17.63
	c16.411,3.158,80.85,0.936,80.85,0.936l-7.35-17.642l-61.204-12.026l-2.187-24.521L22.746,356.938z"/>
<path fill="#E8B69C" d="M109.963,370.362c0,0,2.669-0.776,7.207-0.661c6.062,0.152,13.471-2.134,18.595-2.462
	c2.612-0.164,3.593,0.75,3.832,1.614c0.597,2.179-1.541,3.503-1.541,3.503c2.041,0.51,3.463,0.454,3.695,2.716
	c0.252,2.486-3.554,3.101-3.554,3.101s2.562-0.039,2.792,2.698c0.24,2.83-3.927,3.123-5.011,3.58c0,0,1.241,0.732,1.446,1.772
	c0.172,0.874-0.565,2.041-1.677,2.448c-0.643,0.237-6.882,1.108-13.488,0.479c-5.904-0.561-13.753-0.938-13.753-0.938
	L109.963,370.362z"/>
<path fill="#2D3962" d="M126.558,389.855c-2.512,0-5.11-0.085-7.225-0.318c-0.404-0.044-0.695-0.408-0.651-0.813
	c0.044-0.4,0.413-0.686,0.812-0.651c6.048,0.664,15.277,0.098,16.025-0.101c0.761-0.282,1.279-1.111,1.181-1.606
	c-0.115-0.595-0.895-1.16-1.098-1.28c-0.238-0.143-0.38-0.406-0.361-0.685c0.02-0.278,0.193-0.521,0.45-0.63
	c0.273-0.114,0.633-0.204,1.088-0.315c1.904-0.471,3.604-1.019,3.476-2.521c-0.162-1.925-1.736-2.024-2.052-2.024h-0.001
	c-0.404,0-0.736-0.325-0.738-0.729c-0.004-0.405,0.317-0.737,0.722-0.743c0.014-0.001,0.027-0.001,0.042-0.001
	c1.137,0,3.272,0.7,3.497,3.373c0.229,2.686-2.489,3.542-4.226,3.985c0.291,0.349,0.55,0.784,0.65,1.286
	c0.248,1.26-0.735,2.763-2.145,3.281C135.445,389.569,131.145,389.855,126.558,389.855z"/>
<path fill="#E8B69C" d="M127.287,363.224c-1.627-2.293-4.814-0.313-8.515,2.436c-1.752,1.303-5.382,3.287-6.065,4.651
	c-1.006,2.013,8.021,0.809,8.021,0.809S130.556,367.827,127.287,363.224z"/>
<path fill="#2D3962" d="M138.195,378.91c-0.355,0-0.667-0.255-0.726-0.616c-0.065-0.402,0.207-0.781,0.608-0.848
	c0.029-0.005,3.119-0.536,2.939-2.298c-0.144-1.41-0.727-1.538-2.285-1.879c-0.271-0.062-0.557-0.125-0.854-0.197
	c-0.288-0.073-0.504-0.309-0.55-0.602c-0.045-0.293,0.088-0.585,0.34-0.741c0.065-0.04,1.658-1.071,1.217-2.681
	c-0.215-0.782-1.367-1.181-3.074-1.074c-2.067,0.131-4.541,0.596-7.16,1.083c-1.102,0.205-2.229,0.417-3.359,0.608
	c-0.344,0.062-0.678-0.132-0.809-0.452c-0.129-0.321-0.016-0.69,0.271-0.884c1.422-0.958,2.259-1.949,2.427-2.867
	c0.108-0.595-0.054-1.188-0.499-1.812c-0.279-0.395-0.602-0.606-1.016-0.673c-1.479-0.248-3.983,1.436-6.458,3.274
	c-0.525,0.39-1.213,0.839-1.941,1.315c-1.401,0.914-2.991,1.951-3.679,2.757c-0.123,0.146-0.297,0.237-0.486,0.256
	c-2.033,0.203-6.391-0.381-6.574-0.405c-0.403-0.055-0.685-0.425-0.63-0.828c0.053-0.401,0.414-0.695,0.829-0.63
	c0.041,0.005,3.977,0.534,5.954,0.42c0.871-0.903,2.349-1.867,3.782-2.805c0.702-0.457,1.364-0.887,1.869-1.263
	c3.25-2.414,5.655-3.848,7.566-3.546c0.81,0.129,1.477,0.557,1.987,1.275c0.676,0.95,0.926,1.936,0.746,2.929
	c-0.125,0.689-0.458,1.365-0.996,2.022c0.249-0.047,0.499-0.094,0.746-0.141c2.662-0.497,5.179-0.968,7.338-1.104
	c3.55-0.236,4.388,1.432,4.586,2.152c0.37,1.35-0.104,2.49-0.732,3.29c1.43,0.341,2.684,0.848,2.91,3.052
	c0.255,2.507-2.501,3.632-4.171,3.902C138.273,378.906,138.235,378.91,138.195,378.91z"/>
<path fill="#2D3962" d="M134.992,385.148c-1.807,0-3.519-0.104-4.898-0.203c-0.406-0.03-0.71-0.384-0.682-0.789
	c0.03-0.405,0.387-0.71,0.788-0.681c1.764,0.129,4.09,0.266,6.418,0.17c0.421,0.018,0.749,0.298,0.765,0.706
	c0.017,0.406-0.298,0.751-0.705,0.766C136.113,385.139,135.547,385.148,134.992,385.148z"/>
<path fill="#2D3962" d="M130.373,379.346c-0.407,0-0.736-0.331-0.736-0.737c0-0.405,0.328-0.737,0.734-0.737
	c2.289-0.005,4.246-0.145,6.511-0.31c0.785-0.057,1.607-0.115,2.496-0.173c0.418-0.021,0.757,0.281,0.784,0.687
	c0.027,0.406-0.281,0.758-0.687,0.782c-0.887,0.058-1.705,0.117-2.486,0.174C134.695,379.198,132.715,379.341,130.373,379.346z"/>
<path fill="#2D3962" d="M130.385,373.5c-0.402,0-0.73-0.322-0.736-0.725c-0.006-0.405,0.317-0.742,0.724-0.748
	c3.407-0.06,5.001-0.157,8.333-0.657c0.399-0.057,0.776,0.216,0.838,0.617c0.06,0.402-0.218,0.778-0.619,0.838
	c-3.414,0.513-5.044,0.613-8.526,0.674C130.394,373.499,130.39,373.5,130.385,373.5z"/>
<path fill="#2D3962" d="M19.913,335.418c-0.397,0-0.724-0.316-0.737-0.715c-0.011-0.406,0.309-0.747,0.715-0.759l34.138-1.005
	l-0.486-13.878c-0.015-0.405,0.304-0.748,0.71-0.76c0.381-0.019,0.747,0.303,0.761,0.709l0.513,14.619
	c0.008,0.194-0.063,0.387-0.199,0.528c-0.134,0.143-0.319,0.229-0.516,0.233l-34.879,1.024
	C19.928,335.416,19.921,335.418,19.913,335.418z"/>
<path fill="#2D3962" d="M79.467,264.678c-12.859,0-18.216-6.294-18.44-6.565c-0.259-0.312-0.215-0.774,0.096-1.034
	c0.313-0.258,0.776-0.216,1.037,0.094c0.052,0.063,5.294,6.202,17.699,6.031c13.015-0.135,17.454-4.957,17.498-5.006
	c0.269-0.304,0.735-0.332,1.038-0.065c0.303,0.269,0.335,0.73,0.07,1.036c-0.191,0.219-4.831,5.365-18.591,5.506
	C79.74,264.678,79.602,264.678,79.467,264.678z"/>
<path fill="#E8B69C" d="M238.76,370.424c-3.833-0.938-14.939,0.062-18.686,1.029c-3.201,0.828-4.956,4.17-4.956,4.17l2.367,9.571
	c0,0,4.945,1.403,9.352,0.654c2.936-0.497,15.587-2.84,16.874-1.967c1.737,1.179,3.498-0.314,3.468-0.948
	c-0.008-0.21-0.146-0.742-0.427-1.385c0.129,0,0.258,0.003,0.367-0.01c2.236-0.245,1.002-2.722,1.002-2.722
	c-0.123-0.086-0.248-0.16-0.373-0.242c1.086,0.205,0.72-0.385,0.946-0.915C249.966,374.67,242.596,371.362,238.76,370.424z"/>
<path fill="#9DBBE2" d="M393.14,294.66H276.595c-5.386,0-9.752,3.735-9.752,8.343l-27.036,73.367l-57.638,10.033
	c-1.619,0,30.822,0.406,53.688,0.691l-0.1,0.271h136.047l31.089-84.362C402.892,298.396,398.526,294.66,393.14,294.66z"/>
<path fill="#2D3962" d="M393.14,294.66H276.595c-5.386,0-9.752,3.735-9.752,8.343l-27.036,73.367l-57.638,10.033
	c-1.619,0,30.822,0.406,53.688,0.691l-0.1,0.271h136.047l31.089-84.362C402.892,298.396,398.526,294.66,393.14,294.66z"/>
<path fill="#FFFFFF" d="M324.655,353.242c7.965,0,14.419-6.455,14.419-14.418c0-7.964-6.454-14.421-14.419-14.421
	c-7.963,0-14.419,6.457-14.419,14.421C310.236,346.787,316.692,353.242,324.655,353.242z"/>
<path fill="#AB9FCD" d="M421.724,396.952H14.311c-2.65,0-4.799-2.147-4.799-4.798v-2.079c0-2.648,2.149-4.799,4.799-4.799h407.413
	c2.648,0,4.797,2.15,4.797,4.799v2.079C426.521,394.805,424.372,396.952,421.724,396.952z"/>
<g opacity="0.14">
	<path fill="#F8BF79" d="M407.397,361.13c0,0-9.009-13.78-6.391-24.737c1.378-5.763,6.035-9.743,10.17-13.618
		c5.187-4.857,6.739-7.637,7.021-14.958c0.122-3.125,0.391-6.364,1.922-9.092c1.53-2.727,4.667-4.793,7.724-4.126
		c2.768,0.602,4.718,3.288,5.228,6.077c0.509,2.787-0.162,5.651-1.036,8.348c-1.872,5.776-4.76,11.327-8.857,15.846
		c-3.703,4.086-9.97,6.991-12.553,11.927C404.717,348.074,407.397,361.13,407.397,361.13z"/>
</g>
<path fill="#21AB9B" d="M390.093,356.399l3.379,29.749c0,0,20.482,1.505,24.972-0.506l4.357-29.175L390.093,356.399z"/>
<path fill="#21AB9B" d="M389.135,376.522c-0.041,0-0.08-0.003-0.119-0.003c-2-0.029-3.87-0.838-5.265-2.275
	c-1.392-1.438-2.143-3.329-2.111-5.329c0.063-4.091,3.411-7.375,7.487-7.375c0.04,0,0.079,0.002,0.118,0.002
	c2,0.029,3.87,0.839,5.265,2.274c1.391,1.438,2.141,3.33,2.111,5.33c-0.03,2.001-0.839,3.869-2.277,5.263
	C392.937,375.775,391.089,376.522,389.135,376.522z M389.13,364.748c-2.332,0-4.245,1.878-4.281,4.219
	c-0.018,1.143,0.411,2.225,1.207,3.047c0.796,0.82,1.865,1.282,3.01,1.3c1.131,0.023,2.227-0.41,3.048-1.207
	c0.82-0.797,1.284-1.864,1.302-3.01c0.016-1.145-0.412-2.226-1.208-3.048c-0.797-0.82-1.865-1.283-3.01-1.3
	C389.175,364.748,389.152,364.748,389.13,364.748z"/>
<g opacity="0.14">
	<path fill="#F8BF79" d="M424.054,335.047c-2.275-0.948-5.057,0.507-6.999,2.022c-1.941,1.515-2.763,4.731-0.987,6.44
		c1.347,1.297,3.549,1.187,5.27,0.457c1.99-0.846,3.74-2.545,4.098-4.679C425.792,337.155,425.085,335.475,424.054,335.047z"/>
</g>
<path fill="#2D3962" d="M422.301,360.372h-31.573c-0.405,0-0.736-0.33-0.736-0.737c0-0.405,0.331-0.737,0.736-0.737h31.573
	c0.405,0,0.737,0.332,0.737,0.737C423.038,360.042,422.706,360.372,422.301,360.372z"/>
<path fill="#2D3962" d="M418.713,383.839H393.06c-0.406,0-0.737-0.33-0.737-0.736s0.331-0.737,0.737-0.737h25.653
	c0.406,0,0.736,0.331,0.736,0.737S419.119,383.839,418.713,383.839z"/>
<path fill="#21AB9B" d="M495.601,236.665h-50.384c-3.165,0-5.731-2.567-5.731-5.732v-15.91c0-3.167,2.566-5.733,5.731-5.733h50.384
	c3.167,0,5.733,2.566,5.733,5.733v15.91C501.334,234.098,498.768,236.665,495.601,236.665z"/>
<path fill="#FFFFFF" d="M467.092,220.242h-17.479c-0.813,0-1.469-0.658-1.469-1.469s0.655-1.469,1.469-1.469h17.479
	c0.813,0,1.469,0.658,1.469,1.469S467.905,220.242,467.092,220.242z"/>
<path fill="#FFFFFF" d="M484.611,228.153h-34.996c-0.813,0-1.469-0.658-1.469-1.469c0-0.812,0.656-1.468,1.469-1.468h34.996
	c0.812,0,1.471,0.657,1.471,1.468C486.081,227.495,485.422,228.153,484.611,228.153z"/>
<path fill="#C8C1E0" d="M491.08,200.647h-47.025c-2.523,0-4.568-2.044-4.568-4.568v-22.596c0-2.522,2.045-4.568,4.568-4.568h47.025
	c2.521,0,4.567,2.044,4.567,4.568v22.596C495.647,198.603,493.602,200.647,491.08,200.647z"/>
<path fill="#FFFFFF" d="M468.361,178.756h-20.804c-0.647,0-1.172-0.524-1.172-1.171s0.524-1.171,1.172-1.171h20.804
	c0.647,0,1.172,0.525,1.172,1.171S469.008,178.756,468.361,178.756z"/>
<path fill="#2D3962" d="M482.322,185.061h-34.765c-0.647,0-1.172-0.524-1.172-1.171c0-0.646,0.524-1.171,1.172-1.171h34.765
	c0.646,0,1.171,0.525,1.171,1.171C483.491,184.537,482.967,185.061,482.322,185.061z"/>
<path fill="#2D3962" d="M482.322,191.729h-34.765c-0.647,0-1.172-0.525-1.172-1.171c0-0.647,0.524-1.171,1.172-1.171h34.765
	c0.646,0,1.171,0.524,1.171,1.171C483.491,191.204,482.967,191.729,482.322,191.729z"/>
<path fill="#C8C1E0" d="M232.167,117.708h-53.663c-3.167,0-5.731-2.566-5.731-5.733v-15.91c0-3.165,2.565-5.731,5.731-5.731h53.663
	c3.166,0,5.732,2.566,5.732,5.731v15.91C237.899,115.141,235.333,117.708,232.167,117.708z"/>
<path fill="#2D3962" d="M203.658,101.285H182.9c-0.812,0-1.469-0.658-1.469-1.47s0.657-1.469,1.469-1.469h20.758
	c0.811,0,1.469,0.658,1.469,1.469S204.47,101.285,203.658,101.285z"/>
<path fill="#FFFFFF" d="M221.177,109.196h-38.275c-0.812,0-1.47-0.658-1.47-1.469s0.658-1.469,1.47-1.469h38.275
	c0.811,0,1.469,0.658,1.469,1.469S221.988,109.196,221.177,109.196z"/>
<path fill="#21AB9B" d="M158.627,138.037h-44.174c-2.522,0-4.566-2.044-4.566-4.566v-22.597c0-2.522,2.044-4.568,4.566-4.568h44.174
	c2.522,0,4.567,2.044,4.567,4.568v22.597C163.193,135.993,161.149,138.037,158.627,138.037z"/>
<path fill="#FFFFFF" d="M135.907,116.147h-17.951c-0.647,0-1.172-0.524-1.172-1.171s0.524-1.171,1.172-1.171h17.951
	c0.647,0,1.172,0.525,1.172,1.171C137.078,115.623,136.555,116.147,135.907,116.147z"/>
<path fill="#2D3962" d="M149.867,122.452h-31.911c-0.647,0-1.172-0.525-1.172-1.171s0.524-1.171,1.172-1.171h31.911
	c0.646,0,1.17,0.524,1.17,1.171S150.513,122.452,149.867,122.452z"/>
<path fill="#2D3962" d="M149.867,129.119h-31.911c-0.647,0-1.172-0.524-1.172-1.171c0-0.646,0.524-1.171,1.172-1.171h31.911
	c0.646,0,1.17,0.525,1.17,1.171C151.038,128.596,150.513,129.119,149.867,129.119z"/>
<path fill="#116E63" d="M320.145,437.567l-11.42-4.391l-9.512,7.695l1.907,12.085l11.42,4.391l9.512-7.695L320.145,437.567z"/>
<path fill="#116E63" d="M323.179,81.245l-10.996,5.362l-0.854,12.206l10.143,6.841l10.997-5.362l0.852-12.206L323.179,81.245z"/>
<path fill="#C8C1E0" d="M432.785,27.462l-10.17,22.705l24.423-4.74L432.785,27.462z"/>
<path fill="#C8C1E0" d="M126.92,424.636l-24.62-3.567l11.24,22.191L126.92,424.636z"/>
<path fill="#C8C1E0" d="M232.825,42.05c4.522,0,8.188-3.666,8.188-8.188s-3.666-8.188-8.188-8.188c-4.522,0-8.188,3.667-8.188,8.188
	S228.303,42.05,232.825,42.05z"/>
<path fill="#2D3962" d="M339.561,41.167c-0.407,0-0.736-0.33-0.736-0.736v-8.498c0-0.406,0.329-0.736,0.736-0.736
	c0.406,0,0.735,0.33,0.735,0.736v8.498C340.296,40.837,339.968,41.167,339.561,41.167z"/>
<path fill="#2D3962" d="M343.81,36.918h-8.499c-0.405,0-0.735-0.33-0.735-0.737c0-0.406,0.33-0.736,0.735-0.736h8.499
	c0.405,0,0.736,0.33,0.736,0.736C344.546,36.588,344.215,36.918,343.81,36.918z"/>
<path fill="#2D3962" d="M8.976,239.318c-0.407,0-0.736-0.329-0.736-0.735v-8.498c0-0.406,0.329-0.736,0.736-0.736
	s0.736,0.33,0.736,0.736v8.498C9.712,238.989,9.383,239.318,8.976,239.318z"/>
<path fill="#2D3962" d="M13.224,235.069H4.726c-0.407,0-0.736-0.329-0.736-0.736c0-0.406,0.329-0.735,0.736-0.735h8.498
	c0.407,0,0.736,0.329,0.736,0.735C13.96,234.74,13.631,235.069,13.224,235.069z"/>
<path fill="#2D3962" d="M216.664,462.903c-0.407,0-0.736-0.332-0.736-0.737v-8.499c0-0.405,0.329-0.737,0.736-0.737
	s0.736,0.332,0.736,0.737v8.499C217.4,462.572,217.071,462.903,216.664,462.903z"/>
<path fill="#2D3962" d="M220.912,458.654h-8.498c-0.407,0-0.736-0.331-0.736-0.738c0-0.405,0.329-0.736,0.736-0.736h8.498
	c0.407,0,0.736,0.331,0.736,0.736C221.648,458.323,221.321,458.654,220.912,458.654z"/>
<path fill="#2D3962" d="M462.501,371.773c-0.407,0-0.737-0.33-0.737-0.736v-8.498c0-0.406,0.33-0.737,0.737-0.737
	c0.405,0,0.736,0.331,0.736,0.737v8.498C463.238,371.443,462.906,371.773,462.501,371.773z"/>
<path fill="#2D3962" d="M466.75,367.525h-8.499c-0.406,0-0.737-0.33-0.737-0.736c0-0.407,0.331-0.737,0.737-0.737h8.499
	c0.405,0,0.737,0.33,0.737,0.737C467.488,367.195,467.156,367.525,466.75,367.525z"/>
<path fill="#2D3962" d="M493.21,122.759c-0.407,0-0.738-0.33-0.738-0.736v-8.499c0-0.406,0.331-0.736,0.738-0.736
	c0.405,0,0.737,0.33,0.737,0.736v8.499C493.948,122.429,493.615,122.759,493.21,122.759z"/>
<path fill="#2D3962" d="M497.458,118.511h-8.499c-0.405,0-0.737-0.33-0.737-0.736s0.332-0.736,0.737-0.736h8.499
	c0.405,0,0.737,0.33,0.737,0.736S497.864,118.511,497.458,118.511z"/>
</svg>
