<svg width="394" height="188" viewBox="0 0 394 188" fill="none" xmlns="http://www.w3.org/2000/svg">
<g clip-path="url(#clip0_193_618)">
<g opacity="0.2">
<mask id="mask0_193_618" style="mask-type:luminance" maskUnits="userSpaceOnUse" x="-235" y="-250" width="724" height="439">
<path d="M469.46 189H-215.405C-226.003 189 -234.594 180.417 -234.594 169.83V-230.31C-234.594 -240.897 -226.003 -249.48 -215.405 -249.48H469.46C480.057 -249.48 488.649 -240.897 488.649 -230.31V169.83C488.649 180.417 480.057 189 469.46 189Z" fill="white"/>
</mask>
<g mask="url(#mask0_193_618)">
<path d="M403.831 41.0843C385.987 36.9663 367.853 33.9228 349.582 31.9799C336.518 30.591 323.168 29.7767 310.319 32.359C298.782 34.6767 288.043 39.6641 278.146 45.6171C240.071 68.5239 212.541 106.175 170.381 121.8C151.743 128.708 131.465 130.777 112.177 135.939C47.5903 153.225 -3.19134 208.234 -11.5405 269.958L404.058 272.999L403.831 41.0843Z" fill="#116E63" fill-opacity="0.6"/>
</g>
</g>
</g>
<defs>
<clipPath id="clip0_193_618">
<rect width="400" height="189" fill="white"/>
</clipPath>
</defs>
</svg>
