<?xml version="1.0" encoding="utf-8"?>
<!-- Generator: Adobe Illustrator 16.0.0, SVG Export Plug-In . SVG Version: 6.00 Build 0)  -->
<!DOCTYPE svg PUBLIC "-//W3C//DTD SVG 1.1//EN" "http://www.w3.org/Graphics/SVG/1.1/DTD/svg11.dtd">
<svg version="1.1" id="Layer_1" xmlns="http://www.w3.org/2000/svg" xmlns:xlink="http://www.w3.org/1999/xlink" x="0px" y="0px"
	 width="112.587px" height="107.692px" viewBox="0 0 112.587 107.692" enable-background="new 0 0 112.587 107.692"
	 xml:space="preserve">
<circle fill="#E1F3F4" cx="56.293" cy="53.848" r="46.25"/>
<g>
	<path fill="#DA5326" d="M32.511,37.398v16.885c0,0,7.343,5.342,18.178,5.342c10.834,0,18.176-5.342,18.176-5.342V37.398H32.511z"/>
</g>
<g>
	<path fill="#FCC015" d="M26.111,35.796c-0.579,0-1.048,0.469-1.048,1.048v9.481c0,0.578,0.469,1.047,1.048,1.047
		s1.048-0.469,1.048-1.047v-9.481C27.159,36.265,26.69,35.796,26.111,35.796z"/>
</g>
<g>
	<polygon fill="#7B2016" points="50.688,27.925 22.626,36.36 50.688,45.841 78.749,36.36 	"/>
</g>
<g>
	<polygon fill="#07545E" points="89.962,53.714 47.624,53.714 47.624,83.066 81.51,83.066 89.962,74.615 	"/>
</g>
<g>
	<rect x="47.624" y="53.714" fill="#026579" width="21.168" height="29.353"/>
</g>
<g>
	<polygon fill="#FFFFFF" points="81.51,83.066 89.962,74.615 81.51,74.615 	"/>
</g>
<g>
	<rect x="72.538" y="60.078" fill="#FFFFFF" width="14.055" height="1.21"/>
</g>
<g>
	<rect x="72.538" y="63.253" fill="#FFFFFF" width="14.055" height="1.21"/>
</g>
<g>
	<rect x="72.538" y="66.429" fill="#FFFFFF" width="14.055" height="1.21"/>
</g>
<g>
	<rect x="72.538" y="69.604" fill="#FFFFFF" width="14.055" height="1.21"/>
</g>
<g>
	<path fill="#FCC015" d="M46.615,82.016c-0.132,0-0.265-0.046-0.372-0.139c-0.236-0.205-0.262-0.563-0.056-0.8l5.87-6.763
		c0.206-0.236,0.563-0.262,0.8-0.057c0.237,0.205,0.262,0.564,0.057,0.8l-5.871,6.763C46.931,81.949,46.773,82.016,46.615,82.016z"
		/>
</g>
<g>
	<path fill="#DA5326" d="M42.994,85.618L42.994,85.618c-0.637-0.553-0.705-1.517-0.152-2.153l4.157-4.897
		c0.553-0.638,1.517-0.705,2.153-0.153l0,0c0.637,0.554,0.705,1.517,0.152,2.154l-4.157,4.897
		C44.595,86.104,43.63,86.171,42.994,85.618z"/>
</g>
<g>
	<path fill="#FFFFFF" d="M62.376,63.289c-3.536-3.069-8.892-2.691-11.962,0.847c-3.069,3.536-2.691,8.892,0.846,11.962
		c3.537,3.069,8.893,2.691,11.963-0.847C66.292,71.716,65.914,66.359,62.376,63.289z M53.211,73.85
		c-2.295-1.992-2.541-5.469-0.549-7.764c1.993-2.295,5.468-2.54,7.764-0.549c2.295,1.993,2.541,5.468,0.549,7.764
		C58.982,75.596,55.507,75.841,53.211,73.85z"/>
</g>
</svg>
